<?xml version="1.0" encoding="UTF-8"?>
<svg width="283px" height="32px" viewBox="0 0 283 32" version="1.1" xmlns="http://www.w3.org/2000/svg" xmlns:xlink="http://www.w3.org/1999/xlink">
    <title>Group_32</title>
    <g id="Page-1" stroke="none" stroke-width="1" fill="none" fill-rule="evenodd">
        <g id="logo" transform="translate(-875.000000, -234.000000)" fill="#299AB0">
            <g id="_1._Yamaguchi_Lab_-_Login" transform="translate(-32.000000, -53.000000)">
                <g id="Group_32" transform="translate(907.000000, 287.000000)">
                    <path d="M29.43,26.144 L21.076,10.733 L21.076,1.553 C21.0633818,0.685720266 20.3523314,-0.00834722654 19.485,-7.45078123e-05 L10.958,-7.45078123e-05 C10.5426667,-0.00346216179 10.1429706,0.158215385 9.8468475,0.449462457 C9.55072443,0.740709529 9.38243354,1.13766647 9.379,1.553 L9.379,10.733 L1.018,26.144 C0.38143503,27.3224545 0.412280309,28.7489995 1.09918848,29.8988374 C1.78609664,31.0486753 3.02760978,31.7519725 4.367,31.7500149 L26.076,31.7500149 C27.4162813,31.7537394 28.6594132,31.0511453 29.3475361,29.9009911 C30.035659,28.7508369 30.066994,27.3232398 29.43,26.144 L29.43,26.144 Z M16.6,19.6999967 C17.345612,19.7022076 17.948468,20.3080449 17.9470001,21.0536588 C17.9455267,21.7992726 17.3402855,22.4027271 16.5946706,22.4019941 C15.8490557,22.4012597 15.245,21.7966153 15.245,21.051 C15.2452646,20.6920802 15.3882359,20.3479954 15.6424055,20.0945762 C15.896575,19.8411569 16.241081,19.6992035 16.6,19.6999967 L16.6,19.6999967 Z M14.144,12.928 C14.145214,12.3800868 13.8160933,11.8854492 13.3102355,11.6749302 C12.8043777,11.4644112 12.2215067,11.579512 11.8336432,11.9665162 C11.4457796,12.3535204 11.3293862,12.9361345 11.5387827,13.4424581 C11.7481791,13.9487816 12.2420854,14.2790093 12.79,14.2790093 C13.1497851,14.280331 13.4952618,14.1382015 13.7499514,13.884075 C14.0046409,13.6299484 14.1475347,13.2847871 14.1470015,12.925 L14.144,12.928 Z M12.79,16.293 C13.9983166,16.2985176 14.9738467,17.2816467 14.97,18.4899697 C14.9661305,19.6982927 13.9843421,20.6751722 12.7760149,20.6729772 C11.5676877,20.6707749 10.5894608,19.6903291 10.5899998,18.482 C10.5905266,17.898899 10.823149,17.3399928 11.2364946,16.9287112 C11.6498401,16.5174296 12.2099036,16.2876078 12.793,16.2899815 L12.79,16.293 Z M24.05,28.285 C24.6039843,28.2909217 25.1191708,28.001276 25.4019936,27.5248886 C25.6848164,27.0485013 25.6924399,26.4575245 25.422,25.974 L23.874,23.204 C23.4530613,22.4495079 22.5016221,22.176902 21.745,22.594 C20.4480087,23.3705078 18.9867765,23.831553 17.479,23.94 C15.8038235,23.8423118 14.1672255,23.3975767 12.673,22.634 C11.4024457,22.0234306 10.0505623,21.5990726 8.659,21.374 C8.03810206,21.3148733 7.44108554,21.6288859 7.138,22.174 L5.015,25.974 C4.74557564,26.4573905 4.75373983,27.0476309 5.03643106,27.5233846 C5.31912229,27.9991383 5.83362357,28.2885149 6.387,28.283 L24.05,28.285 Z" id="Path_194"></path>
                    <g id="やまぐちヘルスラボ" transform="translate(40.000000, 1.000000)" fill-rule="nonzero" font-family="YuGothic-Bold, Yu Gothic" font-size="27" font-weight="bold">
                        <text>
                            <tspan x="0" y="24">やまぐちヘルスラボ</tspan>
                        </text>
                    </g>
                </g>
            </g>
        </g>
    </g>
</svg>